<svg version="1.1" id="Layer_1" xmlns="http://www.w3.org/2000/svg" xmlns:xlink="http://www.w3.org/1999/xlink" x="0px" y="0px"
	 width="100%" viewBox="0 0 223 105" enable-background="new 0 0 223 105" xml:space="preserve">
<path fill="#EBE9E3" opacity="1.000000" stroke="none" 
	d="
M177.000000,106.000000 
	C118.044617,106.000000 59.589237,106.000000 1.066927,106.000000 
	C1.066927,71.071419 1.066927,36.142681 1.066927,1.106969 
	C75.333252,1.106969 149.666595,1.106969 223.982239,1.106969 
	C223.982239,36.077068 223.982239,71.038544 223.982239,106.000000 
	C208.476318,106.000000 192.988159,106.000000 177.000000,106.000000 
M111.500633,26.961210 
	C111.500633,45.925362 111.500633,64.889511 111.500633,84.055244 
	C115.055725,84.055244 118.106247,84.055244 121.682907,84.055244 
	C121.682907,75.960976 121.682907,68.219536 121.682907,59.915836 
	C126.425545,59.915836 130.651306,59.915836 134.695602,59.915836 
	C134.695602,56.598972 134.695602,53.867535 134.695602,50.841118 
	C130.203720,50.841118 126.084915,50.841118 121.831482,50.841118 
	C121.831482,45.276634 121.831482,40.027031 121.831482,34.102890 
	C126.976746,34.102890 131.877960,34.102890 137.463135,34.102890 
	C136.892227,30.569717 136.443832,27.794744 135.503891,24.798193 
	C135.330521,24.845556 135.157150,24.892921 134.074005,24.706152 
	C127.053932,24.785551 120.033852,24.864952 112.310051,24.917976 
	C112.137062,25.302511 111.964073,25.687044 111.500633,26.961210 
M171.145523,80.628891 
	C172.553040,76.498535 174.957901,72.420006 175.175751,68.227829 
	C175.762390,56.939075 175.417313,45.601833 175.438965,34.283833 
	C175.444885,31.191320 175.439865,28.098787 175.439865,25.005537 
	C171.846390,25.005537 168.938843,25.005537 165.730942,25.005537 
	C165.730942,31.263882 165.726517,37.227547 165.731995,43.191204 
	C165.739777,51.679733 165.913666,60.172031 165.712189,68.655487 
	C165.572830,74.523041 160.575394,77.920593 156.477524,74.815948 
	C154.630035,73.416252 153.426880,70.081207 153.366852,67.589684 
	C153.062317,54.947433 153.228699,42.293835 153.230026,29.644213 
	C153.230194,28.068558 153.230057,26.492903 153.230057,24.990751 
	C149.495575,24.990751 146.565140,24.990751 143.206711,24.990751 
	C143.206711,39.388088 143.283920,53.497952 143.173386,67.606346 
	C143.119980,74.425301 144.852402,80.362419 151.435745,83.355026 
	C158.073380,86.372307 164.705597,86.096672 171.145523,80.628891 
M53.955780,67.354843 
	C52.897430,72.845146 51.839081,78.335442 50.742863,84.022194 
	C52.293808,84.176254 53.109783,84.219093 53.913147,84.343399 
	C58.622932,85.072189 61.641888,83.853523 61.380596,78.309418 
	C61.108105,72.527725 64.046700,70.410011 69.626099,71.353241 
	C71.207985,71.620674 72.873383,71.394135 74.747757,71.394135 
	C75.682724,75.875656 76.546593,80.016365 77.378105,84.002014 
	C80.911926,84.002014 83.982712,84.002014 87.609802,84.002014 
	C83.611488,64.692230 79.738014,45.835995 75.715187,27.011677 
	C75.520248,26.099480 74.055634,24.879169 73.108818,24.810163 
	C69.533485,24.549595 65.927803,24.705471 62.392094,24.705471 
	C59.528885,39.151146 56.816837,52.834164 53.955780,67.354843 
M39.379234,83.117020 
	C48.815460,76.738480 50.209332,65.327652 42.174454,56.981739 
	C38.506954,53.172268 33.725414,50.430771 30.088402,46.598251 
	C27.998001,44.395485 26.413515,41.053482 26.126637,38.077282 
	C25.983881,36.596249 29.115965,33.753483 31.064482,33.452042 
	C32.589153,33.216171 34.859871,35.715664 36.239948,37.445812 
	C37.018639,38.422028 36.666538,40.300236 36.876305,42.263424 
	C40.116783,41.695648 43.127811,41.168072 46.030396,40.659500 
	C46.287636,29.963770 40.873512,24.083860 31.332882,24.129637 
	C21.432230,24.177137 14.993599,30.370464 16.202406,40.216988 
	C16.762661,44.780659 19.528009,49.478249 22.435560,53.230251 
	C25.105301,56.675373 29.615463,58.632320 32.727982,61.818207 
	C34.782627,63.921284 36.459213,66.889618 37.101719,69.741631 
	C37.790699,72.799942 35.717644,75.129456 32.390381,75.650978 
	C28.934471,76.192657 26.484018,74.818558 25.577505,71.360168 
	C25.127750,69.644348 25.081890,67.822662 24.800611,65.639977 
	C21.619099,66.232536 18.624872,66.790207 15.720409,67.331169 
	C15.342530,81.676643 25.279106,88.474083 39.379234,83.117020 
M193.187668,49.500053 
	C193.187668,41.269604 193.187668,33.039154 193.187668,25.023254 
	C189.492218,25.023254 186.565002,25.023254 183.561981,25.023254 
	C183.561981,44.869282 183.561981,64.385124 183.561981,84.130219 
	C191.841034,84.130219 199.762283,84.130219 207.732300,84.130219 
	C207.732300,81.004715 207.732300,78.082649 207.732300,74.552826 
	C202.756699,74.552826 198.045654,74.552826 193.187576,74.552826 
	C193.187576,66.125282 193.187576,58.312656 193.187668,49.500053 
M103.194252,46.500122 
	C103.194252,39.383636 103.194252,32.267155 103.194252,25.027786 
	C99.710335,25.027786 96.672890,25.027786 93.627213,25.027786 
	C93.627213,44.893967 93.627213,64.421974 93.627213,84.129990 
	C96.952339,84.129990 99.877228,84.129990 103.195282,84.129990 
	C103.195282,71.754173 103.195282,59.627117 103.194252,46.500122 
z"/>
<path fill="#151616" opacity="1.000000" stroke="none" 
	d="
M170.879700,80.891426 
	C164.705597,86.096672 158.073380,86.372307 151.435745,83.355026 
	C144.852402,80.362419 143.119980,74.425301 143.173386,67.606346 
	C143.283920,53.497952 143.206711,39.388088 143.206711,24.990751 
	C146.565140,24.990751 149.495575,24.990751 153.230057,24.990751 
	C153.230057,26.492903 153.230194,28.068558 153.230026,29.644213 
	C153.228699,42.293835 153.062317,54.947433 153.366852,67.589684 
	C153.426880,70.081207 154.630035,73.416252 156.477524,74.815948 
	C160.575394,77.920593 165.572830,74.523041 165.712189,68.655487 
	C165.913666,60.172031 165.739777,51.679733 165.731995,43.191204 
	C165.726517,37.227547 165.730942,31.263882 165.730942,25.005537 
	C168.938843,25.005537 171.846390,25.005537 175.439865,25.005537 
	C175.439865,28.098787 175.444885,31.191320 175.438965,34.283833 
	C175.417313,45.601833 175.762390,56.939075 175.175751,68.227829 
	C174.957901,72.420006 172.553040,76.498535 170.879700,80.891426 
z"/>
<path fill="#171818" opacity="1.000000" stroke="none" 
	d="
M54.030285,66.936012 
	C56.816837,52.834164 59.528885,39.151146 62.392094,24.705471 
	C65.927803,24.705471 69.533485,24.549595 73.108818,24.810163 
	C74.055634,24.879169 75.520248,26.099480 75.715187,27.011677 
	C79.738014,45.835995 83.611488,64.692230 87.609802,84.002014 
	C83.982712,84.002014 80.911926,84.002014 77.378105,84.002014 
	C76.546593,80.016365 75.682724,75.875656 74.747757,71.394135 
	C72.873383,71.394135 71.207985,71.620674 69.626099,71.353241 
	C64.046700,70.410011 61.108105,72.527725 61.380596,78.309418 
	C61.641888,83.853523 58.622932,85.072189 53.913147,84.343399 
	C53.109783,84.219093 52.293808,84.176254 50.742863,84.022194 
	C51.839081,78.335442 52.897430,72.845146 54.030285,66.936012 
M64.931618,57.331242 
	C64.691429,59.075447 64.451248,60.819653 64.186722,62.740616 
	C67.367020,62.740616 70.260521,62.740616 73.507812,62.740616 
	C71.662079,55.564007 72.160645,48.138580 67.551071,41.919392 
	C66.719917,46.769539 65.888763,51.619690 64.931618,57.331242 
z"/>
<path fill="#181918" opacity="1.000000" stroke="none" 
	d="
M39.040501,83.305252 
	C25.279106,88.474083 15.342530,81.676643 15.720409,67.331169 
	C18.624872,66.790207 21.619099,66.232536 24.800611,65.639977 
	C25.081890,67.822662 25.127750,69.644348 25.577505,71.360168 
	C26.484018,74.818558 28.934471,76.192657 32.390381,75.650978 
	C35.717644,75.129456 37.790699,72.799942 37.101719,69.741631 
	C36.459213,66.889618 34.782627,63.921284 32.727982,61.818207 
	C29.615463,58.632320 25.105301,56.675373 22.435560,53.230251 
	C19.528009,49.478249 16.762661,44.780659 16.202406,40.216988 
	C14.993599,30.370464 21.432230,24.177137 31.332882,24.129637 
	C40.873512,24.083860 46.287636,29.963770 46.030396,40.659500 
	C43.127811,41.168072 40.116783,41.695648 36.876305,42.263424 
	C36.666538,40.300236 37.018639,38.422028 36.239948,37.445812 
	C34.859871,35.715664 32.589153,33.216171 31.064482,33.452042 
	C29.115965,33.753483 25.983881,36.596249 26.126637,38.077282 
	C26.413515,41.053482 27.998001,44.395485 30.088402,46.598251 
	C33.725414,50.430771 38.506954,53.172268 42.174454,56.981739 
	C50.209332,65.327652 48.815460,76.738480 39.040501,83.305252 
z"/>
<path fill="#1F201F" opacity="1.000000" stroke="none" 
	d="
M113.013779,24.944355 
	C120.033852,24.864952 127.053932,24.785551 134.623062,24.978271 
	C135.446564,25.173519 135.720993,25.096645 135.995438,25.019772 
	C136.443832,27.794744 136.892227,30.569717 137.463135,34.102890 
	C131.877960,34.102890 126.976746,34.102890 121.831482,34.102890 
	C121.831482,40.027031 121.831482,45.276634 121.831482,50.841118 
	C126.084915,50.841118 130.203720,50.841118 134.695602,50.841118 
	C134.695602,53.867535 134.695602,56.598972 134.695602,59.915836 
	C130.651306,59.915836 126.425545,59.915836 121.682907,59.915836 
	C121.682907,68.219536 121.682907,75.960976 121.682907,84.055244 
	C118.106247,84.055244 115.055725,84.055244 111.500633,84.055244 
	C111.500633,64.889511 111.500633,45.925362 111.897308,26.382927 
	C112.533913,25.517879 112.773849,25.231117 113.013779,24.944355 
z"/>
<path fill="#171817" opacity="1.000000" stroke="none" 
	d="
M193.187622,50.000042 
	C193.187576,58.312656 193.187576,66.125282 193.187576,74.552826 
	C198.045654,74.552826 202.756699,74.552826 207.732300,74.552826 
	C207.732300,78.082649 207.732300,81.004715 207.732300,84.130219 
	C199.762283,84.130219 191.841034,84.130219 183.561981,84.130219 
	C183.561981,64.385124 183.561981,44.869282 183.561981,25.023254 
	C186.565002,25.023254 189.492218,25.023254 193.187668,25.023254 
	C193.187668,33.039154 193.187668,41.269604 193.187622,50.000042 
z"/>
<path fill="#181918" opacity="1.000000" stroke="none" 
	d="
M103.194763,47.000092 
	C103.195282,59.627117 103.195282,71.754173 103.195282,84.129990 
	C99.877228,84.129990 96.952339,84.129990 93.627213,84.129990 
	C93.627213,64.421974 93.627213,44.893967 93.627213,25.027786 
	C96.672890,25.027786 99.710335,25.027786 103.194252,25.027786 
	C103.194252,32.267155 103.194252,39.383636 103.194763,47.000092 
z"/>
<path fill="#0B0B0B" opacity="1.000000" stroke="none" 
	d="
M112.661911,24.931166 
	C112.773849,25.231117 112.533913,25.517879 112.042526,25.938110 
	C111.964073,25.687044 112.137062,25.302511 112.661911,24.931166 
z"/>
<path fill="#0B0B0B" opacity="1.000000" stroke="none" 
	d="
M135.749664,24.908983 
	C135.720993,25.096645 135.446564,25.173519 135.077942,25.095341 
	C135.157150,24.892921 135.330521,24.845556 135.749664,24.908983 
z"/>
<path fill="#E0DEDA" opacity="1.000000" stroke="none" 
	d="
M64.994614,56.900539 
	C65.888763,51.619690 66.719917,46.769539 67.551071,41.919392 
	C72.160645,48.138580 71.662079,55.564007 73.507812,62.740616 
	C70.260521,62.740616 67.367020,62.740616 64.186722,62.740616 
	C64.451248,60.819653 64.691429,59.075447 64.994614,56.900539 
z"/>
</svg>